<svg width="128" height="68" viewBox="0 0 128 68" fill="none" xmlns="http://www.w3.org/2000/svg">
<g id="CODlab-logo">
<path id="Vector" d="M119.201 27.1925C115.992 30.222 112.226 31.7278 107.86 31.7457C103.793 31.7623 99.7255 31.73 95.6587 31.7651C94.6662 31.7737 94.317 31.4478 94.3203 30.4441C94.3513 21.117 94.3372 11.7896 94.3406 2.46238C94.3411 1.02964 94.3682 1.00796 95.8024 1.00734C99.9046 1.00556 104.007 1.04543 108.109 1.00089C115.762 0.917791 122.147 6.65506 123.419 13.4387C124.405 18.6979 122.94 23.2516 119.201 27.1925ZM112.512 4.24661C111.163 3.74806 109.767 3.41607 108.329 3.40058C104.964 3.36433 101.598 3.40628 98.2329 3.37345C97.4162 3.36549 97.1323 3.63018 97.1346 4.44658C97.1567 12.2875 97.1555 20.1285 97.1332 27.9694C97.1309 28.7854 97.4209 29.0448 98.2372 29.0345C101.146 28.9974 104.058 28.9668 106.966 29.042C108.388 29.0789 109.776 28.8956 111.108 28.541C118.245 26.6404 122.206 20.0143 120.529 13.1481C119.51 8.97288 116.791 5.95528 112.512 4.24661Z" fill="white" stroke="white" stroke-width="2"/>
<path id="Vector_2" d="M5.3726 5.46847C8.26496 2.55409 11.6347 1.14117 15.5953 1.00767C22.3497 0.779987 28.1384 5.65252 30.0686 11.688C30.0783 11.7185 30.1035 11.7519 30.0978 11.7783C29.9726 12.3544 30.9338 13.1273 29.9492 13.5005C28.7594 13.9515 28.0319 13.4813 27.6623 12.3803C26.3703 8.53101 23.9097 5.83845 20.2669 4.43195C13.7032 1.89765 6.45249 5.36011 4.13702 12.3587C2.10454 18.502 4.86411 25.3134 10.5234 28.11C17.2621 31.4401 25.5222 27.9576 27.725 20.3574C27.9574 19.5559 29.5642 19.0339 30.1986 19.5472C30.5061 19.796 30.3696 20.1194 30.2837 20.4337C29.023 25.0416 26.3592 28.3859 22.1862 30.353C14.8276 33.8218 6.21169 30.7046 2.53603 23.1521C1.0964 20.1941 0.647509 17.0431 1.27932 13.6916C1.87872 10.5122 3.16539 7.79722 5.3726 5.46847Z" fill="white" stroke="white" stroke-width="2"/>
<g id="letro-o-onoff">
<path fill-rule="evenodd" clip-rule="evenodd" d="M45.4121 1.00014C50.318 1.00014 72.1716 0.999828 79.3074 1.00014C86.4432 1.00045 90.9031 9.59703 90.9031 15.9303C90.9031 22.2635 86.4432 31.7653 79.3074 31.7653H45.4121C40.0603 31.7653 33.8164 24.9792 33.8164 15.9303C33.8164 6.88141 40.5063 1.00014 45.4121 1.00014ZM79.3074 5.52443H45.4121C43.6282 5.52443 38.7223 8.69098 38.2763 15.9303C37.8303 23.1696 44.0742 26.789 45.4121 26.789H79.3074C84.2133 26.789 86.4432 20.9066 86.4432 15.9303C86.4432 10.954 82.8213 5.52443 79.3074 5.52443Z" fill="white"/>
</g>
<path id="Vector_3" d="M96.2112 51.5419C96.6932 50.4849 97.1412 49.5003 97.5892 48.5156C97.6933 48.5177 97.7973 48.5198 97.9014 48.5218C98.7402 50.4152 99.5791 52.3085 100.473 54.3268C98.5802 54.3268 96.8564 54.3268 95.0039 54.3268C95.4191 53.3669 95.7982 52.4906 96.2112 51.5419Z" fill="#24FE8F"/>
<path id="Vector_4" d="M96.6898 67.9928C92.3823 67.9927 88.175 68.0023 83.9677 67.9903C75.9807 67.9678 69.7446 62.637 68.2469 54.5669C66.8958 47.287 71.2074 39.6087 78.3174 36.9806C80.1275 36.3115 82.1541 35.9608 84.0866 35.9388C93.3347 35.8335 102.585 35.8663 111.834 35.8994C119.393 35.9265 125.629 40.9549 127.396 48.3609C129.08 55.4215 125.653 62.9251 119.158 66.3158C116.93 67.4784 114.541 68.0123 112.016 67.9996C106.941 67.9741 101.865 67.9925 96.6898 67.9928ZM115.954 43.8534C113.397 43.8534 110.84 43.8534 108.337 43.8534C108.258 44.0385 108.21 44.0986 108.21 44.1588C108.198 49.3754 108.194 54.5919 108.176 59.8084C108.174 60.3465 108.419 60.4894 108.911 60.486C111.214 60.47 113.521 60.551 115.822 60.4571C119.404 60.3109 121.529 56.9136 120.151 53.5843C119.851 52.8611 119.33 52.2302 118.904 51.5459C121.248 47.9055 119.009 44.0243 115.954 43.8534ZM97.9917 56.7124C98.1918 56.7124 98.392 56.7124 98.5921 56.7124C101.193 56.7124 101.193 56.7124 102.19 59.1034C102.817 60.6047 103.43 60.8549 105.161 60.262C105.051 59.9554 104.952 59.6433 104.828 59.3415C102.813 54.4321 100.785 49.5278 98.7897 44.6105C98.573 44.0767 98.3417 43.8135 97.7224 43.8114C97.0989 43.8094 96.8758 44.0811 96.6602 44.6123C95.1283 48.3859 93.5558 52.1429 92.0049 55.9087C91.4004 57.3764 90.8183 58.8534 90.1639 60.4805C90.779 60.4805 91.2105 60.4313 91.6265 60.491C92.4281 60.6059 92.8502 60.2931 93.077 59.5172C93.2724 58.8488 93.6494 58.2348 93.8616 57.5697C94.0654 56.931 94.3967 56.6533 95.091 56.6982C95.9879 56.7562 96.8913 56.7124 97.9917 56.7124ZM88.0534 58.4576C87.7281 58.3272 87.4043 58.0885 87.0772 58.0839C84.7764 58.051 82.4748 58.0687 80.1735 58.0639C79.8209 58.0632 79.4684 58.0298 79.0065 58.0059C79.0065 53.2322 79.0065 48.5727 79.0065 43.8869C78.2027 43.8869 77.5157 43.8869 76.7889 43.8869C76.7513 44.1252 76.6948 44.3166 76.6946 44.508C76.6896 49.5523 76.701 54.5967 76.6778 59.6409C76.6746 60.3416 76.9764 60.4678 77.583 60.4642C80.8181 60.4445 84.0534 60.4565 87.2885 60.4514C87.5132 60.451 87.7377 60.4006 88.0612 60.3616C88.0612 59.7635 88.0612 59.204 88.0534 58.4576Z" fill="#20FF8D"/>
<path id="Vector_5" d="M112.826 52.9774C113.79 52.9786 114.653 52.9506 115.514 52.9872C117.279 53.0622 118.267 54.0797 118.249 55.7575C118.23 57.45 117.231 58.4082 115.441 58.422C113.796 58.4346 112.152 58.4247 110.392 58.4247C110.392 56.7179 110.368 55.1339 110.422 53.5528C110.429 53.3542 110.825 53.0442 111.073 53.0053C111.612 52.9207 112.173 52.978 112.826 52.9774Z" fill="#25FE8F"/>
<path id="Vector_6" d="M116.297 50.4609C114.499 50.5241 112.781 50.5853 111.064 50.5603C110.838 50.557 110.438 50.1225 110.426 49.8705C110.361 48.5558 110.396 47.2354 110.396 45.8158C112.38 45.8158 114.292 45.7113 116.187 45.8608C117.103 45.9332 117.487 46.914 117.552 47.8403C117.627 48.9096 117.411 49.9013 116.297 50.4609Z" fill="#24FE8F"/>
<circle class="ball" id="ball" cx="71" cy="16" r="9" fill="url(#paint0_linear_2713_111)"/>
</g>
<defs>
<linearGradient id="paint0_linear_2713_111" x1="62" y1="15.8302" x2="80" y2="15.8302" gradientUnits="userSpaceOnUse">
<stop stop-color="#28FF88"/>
<stop offset="1" stop-color="#B4F140"/>
</linearGradient>
</defs>
</svg>
