<svg width="372" height="197" viewBox="0 0 372 197" fill="none" xmlns="http://www.w3.org/2000/svg">
<g class="labloader">
<path class="d" d="M346.785 77.6227C337.398 86.4853 326.382 90.8904 313.608 90.9426C301.711 90.9912 289.812 90.8968 277.915 90.9995C275.012 91.0246 273.99 90.071 274 87.135C274.091 59.8496 274.05 32.5637 274.059 5.27801C274.061 1.08669 274.14 1.02328 278.336 1.02147C290.336 1.01628 302.338 1.1329 314.337 1.00261C336.724 0.759509 355.405 17.5432 359.126 37.388C362.01 52.7729 357.723 66.0941 346.785 77.6227ZM327.217 10.4976C323.27 9.03911 319.187 8.06789 314.981 8.02259C305.137 7.91656 295.29 8.03926 285.446 7.94324C283.057 7.91994 282.226 8.69424 282.233 11.0825C282.298 34.0201 282.294 56.958 282.229 79.8956C282.222 82.2828 283.07 83.0416 285.458 83.0112C293.969 82.9028 302.486 82.8132 310.992 83.0334C315.153 83.1411 319.215 82.6051 323.111 81.5676C343.989 76.0076 355.575 56.6239 350.672 36.5378C347.69 24.3237 339.735 15.4961 327.217 10.4976Z" fill="white" stroke="white" stroke-width="2"/>
<path class="c" d="M13.7915 14.0719C22.2527 5.54629 32.1106 1.41298 43.6968 1.02243C63.4558 0.356379 80.3899 14.6104 86.0364 32.2663C86.0649 32.3555 86.1386 32.4533 86.1219 32.5305C85.7556 34.2159 88.5674 36.4769 85.6873 37.5687C82.2067 38.888 80.0783 37.5124 78.9973 34.2917C75.2176 23.031 68.0194 15.1543 57.3629 11.0397C38.1616 3.62597 16.9506 13.755 10.1769 34.2285C4.23118 52.1998 12.304 72.1258 28.8595 80.307C48.5728 90.0487 72.7367 79.8611 79.1807 57.6277C79.8604 55.2829 84.5609 53.7558 86.4167 55.2574C87.3162 55.9853 86.9172 56.9315 86.6656 57.8509C82.9776 71.3307 75.1852 81.1141 62.9775 86.8686C41.451 97.016 16.2461 87.8969 5.49347 65.8032C1.282 57.1498 -0.031169 47.9319 1.81713 38.1277C3.57057 28.8266 7.33457 20.8844 13.7915 14.0719Z" fill="white" stroke="white" stroke-width="2"/>
<g class="letro-o-onoff">
<path fill-rule="evenodd" clip-rule="evenodd" d="M130.922 1.0004C145.273 1.0004 209.203 0.999496 230.078 1.0004C250.953 1.00131 264 26.1495 264 44.6767C264 63.2038 250.953 91 230.078 91H130.922C115.266 91 97 71.148 97 44.6767C97 18.2053 116.57 1.0004 130.922 1.0004ZM230.078 14.2356H130.922C125.703 14.2356 111.352 23.499 110.047 44.6767C108.742 65.8543 127.008 76.4425 130.922 76.4425H230.078C244.43 76.4425 250.953 59.2341 250.953 44.6767C250.953 30.1192 240.357 14.2356 230.078 14.2356Z" fill="white"/>
</g>
<g class="lab">
<path class="a" d="M279.532 148.853C280.942 145.761 282.252 142.88 283.563 140C283.867 140.006 284.172 140.012 284.476 140.018C286.93 145.557 289.384 151.096 292 157C286.462 157 281.419 157 276 157C277.215 154.192 278.323 151.628 279.532 148.853Z" fill="#24FE8F"/>
<path class="lab1" d="M280.928 196.979C268.327 196.979 256.019 197.007 243.712 196.972C220.346 196.906 202.103 181.312 197.722 157.704C193.77 136.407 206.383 113.945 227.182 106.257C232.477 104.3 238.406 103.274 244.059 103.209C271.113 102.902 298.173 102.997 325.231 103.094C347.342 103.173 365.588 117.884 370.755 139.549C375.681 160.204 365.657 182.155 346.655 192.074C340.14 195.475 333.149 197.036 325.764 196.999C310.917 196.925 296.069 196.978 280.928 196.979ZM337.283 126.363C329.804 126.363 322.324 126.363 315 126.363C314.77 126.904 314.629 127.08 314.629 127.256C314.594 142.516 314.581 157.777 314.528 173.037C314.523 174.611 315.241 175.029 316.679 175.019C323.418 174.972 330.167 175.209 336.896 174.935C347.377 174.507 353.592 164.569 349.56 154.829C348.684 152.713 347.158 150.868 345.912 148.866C352.771 138.216 346.221 126.863 337.283 126.363ZM284.737 163.98C285.322 163.98 285.908 163.98 286.493 163.98C294.103 163.98 294.103 163.98 297.02 170.975C298.851 175.366 300.646 176.098 305.711 174.364C305.388 173.467 305.097 172.554 304.735 171.671C298.84 157.309 292.909 142.962 287.071 128.577C286.438 127.016 285.761 126.246 283.949 126.24C282.125 126.234 281.473 127.029 280.842 128.583C276.361 139.622 271.76 150.612 267.223 161.629C265.455 165.923 263.752 170.243 261.838 175.003C263.637 175.003 264.899 174.859 266.116 175.034C268.461 175.37 269.696 174.455 270.36 172.185C270.931 170.23 272.034 168.434 272.655 166.488C273.251 164.619 274.22 163.807 276.251 163.939C278.875 164.108 281.518 163.98 284.737 163.98ZM255.664 169.085C254.712 168.704 253.765 168.006 252.808 167.992C246.077 167.896 239.344 167.948 232.612 167.934C231.581 167.932 230.549 167.834 229.198 167.764C229.198 153.799 229.198 140.168 229.198 126.461C226.847 126.461 224.837 126.461 222.711 126.461C222.601 127.158 222.436 127.718 222.435 128.278C222.42 143.034 222.454 157.791 222.386 172.547C222.377 174.597 223.259 174.966 225.034 174.955C234.498 174.898 243.962 174.933 253.426 174.918C254.083 174.917 254.74 174.769 255.687 174.655C255.687 172.906 255.687 171.269 255.664 169.085Z" fill="#20FF8D"/>
<path class="b2" d="M328.136 153.054C330.956 153.058 333.481 152.975 335.998 153.082C341.164 153.302 344.053 156.279 343.999 161.187C343.945 166.138 341.022 168.941 335.784 168.981C330.974 169.018 326.164 168.989 321.015 168.989C321.015 163.996 320.946 159.363 321.103 154.737C321.123 154.156 322.281 153.249 323.008 153.135C324.585 152.888 326.224 153.056 328.136 153.054Z" fill="#25FE8F"/>
<path class="b1" d="M338.289 145.693C333.029 145.877 328.003 146.056 322.98 145.983C322.321 145.974 321.151 144.703 321.115 143.966C320.926 140.119 321.027 136.257 321.027 132.104C326.832 132.104 332.425 131.798 337.967 132.236C340.647 132.447 341.771 135.316 341.961 138.026C342.18 141.154 341.547 144.055 338.289 145.693Z" fill="#24FE8F"/>
</g>
<circle class="ball-pai" cx="219.5" cy="46.5" r="25" fill="url(#paint0_linear_2718_134)" stroke="white"/>
</g>
<defs>
<linearGradient id="paint0_linear_2718_134" x1="194" y1="46.0189" x2="245" y2="46.0189" gradientUnits="userSpaceOnUse">
<stop stop-color="#28FF88"/>
<stop offset="1" stop-color="#B4F140"/>
</linearGradient>
</defs>
</svg>
